# xmcd
#
# Track frame offsets:
#	183
#	16173
#	33593
#	49448
#	61080
#	74435
#	86480
#	100008
#	110258
#	128885
#	144498
#	159810
#	173973
#	187905
#	202158
#	212660
#	231625
#
# Disc length: 3321
#
# Revision: 1
# Processed by: cddbd v1.5.1PL0 Copyright (c) Steve Scherf et al.
# Submitted via: VisiTrax 2.9.5.181 - For more info visit www.synapsa.com
# Normalized: r0:DSETVAR1
#
DISCID=ed0cf711
DTITLE=Various Artist - Country Love Songs
DYEAR=1992
DGENRE=country
TTITLE0=Kenny Rogers - Lucille
TTITLE1=Emmilou Harris - Together again
TTITLE2=Willie Nelson - Always on my mind
TTITLE3=Charlie Rich - The most beautiful girl
TTITLE4=Johnny Cash - If I were a Carpenter
TTITLE5=Tammy Wynette - Stand By Your man
TTITLE6=Sommerset - Almost Persuaded
TTITLE7=Frankie Laine - I Believe
TTITLE8=Ricky Skaggs - You Make me feel like a man
TTITLE9=Lynn Anderson - For the good times
TTITLE10=Dolly Parton - Make Love Work
TTITLE11=Billie Jo Spears - Cryin' Time
TTITLE12=Bellamy Brothers - If I said you have a beautiful body
TTITLE13=George Jones - Good Year for the roses
TTITLE14=Kris Kristofferson - Help me make it trough the night
TTITLE15=Ray Charles - I can't stop loving you
TTITLE16=Linda Rondstadt - Blue Bayou
EXTD=
EXTT0=
EXTT1=
EXTT2=
EXTT3=
EXTT4=
EXTT5=
EXTT6=
EXTT7=
EXTT8=
EXTT9=
EXTT10=
EXTT11=
EXTT12=
EXTT13=
EXTT14=
EXTT15=
EXTT16=
PLAYORDER=
